<svg width="24" height="25" viewBox="0 0 24 25" fill="none" xmlns="http://www.w3.org/2000/svg">
<path fill-rule="evenodd" clip-rule="evenodd" d="M3.93934 6.56066C3.35355 5.97487 3.35355 5.02513 3.93934 4.43934C4.52513 3.85355 5.47487 3.85355 6.06066 4.43934L12 10.3787L17.9394 4.43934C18.5252 3.85355 19.4749 3.85355 20.0607 4.43934C20.6465 5.02513 20.6465 5.97487 20.0607 6.56066L14.1214 12.5L20.0607 18.4394C20.6465 19.0252 20.6465 19.9749 20.0607 20.5607C19.4749 21.1465 18.5252 21.1465 17.9394 20.5607L12 14.6213L6.06067 20.5607C5.47489 21.1465 4.52514 21.1465 3.93935 20.5607C3.35357 19.9749 3.35357 19.0252 3.93935 18.4394L9.87871 12.5L3.93934 6.56066Z" fill="#94B9B4"/>
</svg>
